<?xml version="1.0" encoding="utf-8"?>
<!-- Generator: Adobe Illustrator 19.0.0, SVG Export Plug-In . SVG Version: 6.00 Build 0)  -->
<svg version="1.1" id="Livello_1" xmlns="http://www.w3.org/2000/svg" xmlns:xlink="http://www.w3.org/1999/xlink" x="0px" y="0px"
	 viewBox="0 0 378.2 109" style="enable-background:new 0 0 378.2 109;" xml:space="preserve">
<style type="text/css">
	.st0{fill:#08467B;}
</style>
<g id="XMLID_1019_">
	<path id="XMLID_1037_" class="st0" d="M126.9,22c-3-14-8-22-8-22L70,29.1c0.4,0.8,0.7,1.6,0.9,2.5L126.9,22z"/>
	<path id="XMLID_1036_" class="st0" d="M71.6,37.1l55.8,10.3c2.1-8.6,0.2-21.4,0.2-21.4l-56.1,8.5c0.1,0.6,0.1,1.1,0.1,1.7
		C71.6,36.5,71.6,36.8,71.6,37.1z"/>
	<path id="XMLID_1035_" class="st0" d="M119,71.4c5-7.5,7.5-19.6,7.5-19.6l-55.3-12c-0.2,1.1-0.6,2.1-1,3.1L119,71.4z"/>
	<path id="XMLID_1034_" class="st0" d="M103,91.1c6.8-5,13.8-16.1,13.8-16.1L69,45.2c-0.6,0.9-1.3,1.8-2.1,2.6L103,91.1z"/>
	<path id="XMLID_1033_" class="st0" d="M81.2,104.2c10.1-3.6,18.7-10.6,18.7-10.6L65,49.5c-0.9,0.7-1.9,1.3-2.9,1.8L81.2,104.2z"/>
	<path id="XMLID_1032_" class="st0" d="M56.2,109c15.4-0.7,20.4-3.1,20.4-3.1L59.7,52.3c-1,0.3-2.1,0.5-3.2,0.6L56.2,109z"/>
	<path id="XMLID_1031_" class="st0" d="M31.8,103.1C43,108.9,52,109,52,109l1.8-56c-1.1-0.1-2.2-0.2-3.3-0.5L31.8,103.1z"/>
	<path id="XMLID_1030_" class="st0" d="M12.8,88c6,8.1,15.4,13.2,15.4,13.2L48,51.6c-1-0.5-2-1-2.9-1.7L12.8,88z"/>
	<path id="XMLID_1029_" class="st0" d="M40.8,45.5L2.2,67.7c3.1,10.5,8,16.8,8,16.8L43,48.2C42.1,47.4,41.4,46.5,40.8,45.5z"/>
	<path id="XMLID_1028_" class="st0" d="M0.2,46.7c-0.8,10.2,0.9,16.8,0.9,16.8l38.4-20.1c-0.5-1-0.9-2.1-1.1-3.2L0.2,46.7z"/>
	<path id="XMLID_1027_" class="st0" d="M38.1,34.3L6,28.4c-5.5,10-5.3,14.3-5.3,14.3L38,37.5c0-0.4-0.1-0.9-0.1-1.3
		C38,35.6,38,34.9,38.1,34.3z"/>
	<path id="XMLID_1026_" class="st0" d="M16.5,15c-7,6.6-8.6,10.3-8.6,10.3l30.7,6.4c0.3-1.1,0.7-2.1,1.2-3.1L16.5,15z"/>
	<path id="XMLID_1025_" class="st0" d="M42.9,24.3L29.4,6.5c-6,2.4-10,5.6-10,5.6l21.5,14.7C41.5,25.9,42.2,25.1,42.9,24.3z"/>
	<path id="XMLID_1024_" class="st0" d="M41.6,2.6c-5.3,0.8-9.7,2.7-9.7,2.7l13.5,16.9c0.8-0.6,1.7-1,2.7-1.5L41.6,2.6z"/>
	<path id="XMLID_1023_" class="st0" d="M53.8,2c-6.3-0.5-9,0.1-9,0.1l5.9,17.8c1-0.2,2-0.4,3-0.5V2z"/>
	<path id="XMLID_1022_" class="st0" d="M65.3,4.1c-3.4-1.2-8.2-1.9-8.2-1.9l-0.7,17.3c1.1,0.1,2.1,0.3,3.1,0.6L65.3,4.1z"/>
	<path id="XMLID_1021_" class="st0" d="M68.5,26.6l17.3-10c-3.6-3.8-7.2-6-7.2-6L66.1,23.8C67,24.6,67.8,25.6,68.5,26.6z"/>
	<path id="XMLID_1020_" class="st0" d="M76,8.9c-2.8-1.8-7.6-3.7-7.6-3.7l-6.6,15.7c1.1,0.5,2.1,1.1,3.1,1.8L76,8.9z"/>
</g>
<g id="XMLID_722_">
	<g id="XMLID_497_">
		<path id="XMLID_557_" class="st0" d="M174.1,29.5c1.6,0.8,2.8,2,3.7,3.5c0.9,1.5,1.3,3.3,1.3,5.3c0,2-0.4,3.8-1.3,5.3
			c-0.9,1.5-2.1,2.6-3.7,3.4c-1.6,0.8-3.5,1.2-5.6,1.2H162v-20h6.5C170.7,28.3,172.5,28.7,174.1,29.5z M173.9,43.7
			c1.2-1.3,1.9-3,1.9-5.3c0-2.3-0.6-4.1-1.9-5.4c-1.2-1.3-3-2-5.4-2h-3.2v14.6h3.2C170.9,45.6,172.7,45,173.9,43.7z"/>
		<path id="XMLID_554_" class="st0" d="M183.1,29.7c-0.4-0.4-0.6-0.9-0.6-1.5c0-0.6,0.2-1.1,0.6-1.5c0.4-0.4,0.9-0.6,1.5-0.6
			c0.6,0,1.1,0.2,1.5,0.6c0.4,0.4,0.6,0.9,0.6,1.5c0,0.6-0.2,1.1-0.6,1.5c-0.4,0.4-0.9,0.6-1.5,0.6C184,30.3,183.5,30.1,183.1,29.7z
			 M186.2,32.4v15.8h-3.3V32.4H186.2z"/>
		<path id="XMLID_551_" class="st0" d="M196.6,32.9c1-0.5,2-0.7,3.2-0.7c1.4,0,2.6,0.3,3.8,1s2,1.6,2.7,2.9c0.7,1.2,1,2.6,1,4.2
			c0,1.6-0.3,3-1,4.3s-1.5,2.2-2.7,2.9c-1.1,0.7-2.4,1-3.8,1c-1.2,0-2.3-0.2-3.2-0.7c-0.9-0.5-1.7-1.1-2.3-1.8v9.8H191V32.4h3.3v2.3
			C194.9,34,195.6,33.4,196.6,32.9z M203.3,37.4c-0.5-0.8-1-1.4-1.8-1.8c-0.7-0.4-1.5-0.6-2.4-0.6c-0.8,0-1.6,0.2-2.3,0.6
			c-0.7,0.4-1.3,1-1.8,1.8s-0.7,1.8-0.7,2.8c0,1.1,0.2,2,0.7,2.9c0.5,0.8,1,1.4,1.8,1.9c0.7,0.4,1.5,0.6,2.3,0.6
			c0.8,0,1.6-0.2,2.4-0.6c0.7-0.4,1.3-1.1,1.8-1.9c0.4-0.8,0.7-1.8,0.7-2.9C203.9,39.2,203.7,38.2,203.3,37.4z"/>
		<path id="XMLID_548_" class="st0" d="M210.9,36c0.7-1.2,1.6-2.2,2.7-2.9s2.4-1,3.8-1c1.2,0,2.3,0.2,3.3,0.7
			c0.9,0.5,1.7,1.1,2.2,1.8v-2.3h3.3v15.8h-3.3v-2.4c-0.6,0.7-1.3,1.4-2.3,1.9c-1,0.5-2.1,0.7-3.3,0.7c-1.4,0-2.6-0.3-3.7-1
			c-1.1-0.7-2-1.7-2.7-2.9c-0.7-1.3-1-2.7-1-4.3C209.9,38.7,210.3,37.3,210.9,36z M222.2,37.5c-0.5-0.8-1-1.4-1.8-1.8
			c-0.7-0.4-1.5-0.6-2.4-0.6s-1.6,0.2-2.4,0.6c-0.7,0.4-1.3,1-1.8,1.8c-0.4,0.8-0.7,1.7-0.7,2.8c0,1.1,0.2,2.1,0.7,2.9
			c0.5,0.8,1,1.5,1.8,1.9c0.7,0.4,1.5,0.6,2.3,0.6c0.8,0,1.6-0.2,2.4-0.6c0.7-0.4,1.3-1,1.8-1.9c0.5-0.8,0.7-1.8,0.7-2.9
			C222.9,39.2,222.7,38.3,222.2,37.5z"/>
		<path id="XMLID_546_" class="st0" d="M236.2,32.8c0.8-0.5,1.7-0.7,2.8-0.7v3.4h-0.8c-1.3,0-2.3,0.3-2.9,1c-0.7,0.7-1,1.8-1,3.4
			v8.3h-3.3V32.4h3.3v2.3C234.8,33.9,235.4,33.3,236.2,32.8z"/>
		<path id="XMLID_544_" class="st0" d="M246.4,35.1v8.8c0,0.6,0.1,1,0.4,1.3c0.3,0.3,0.8,0.4,1.4,0.4h2v2.7h-2.6
			c-1.5,0-2.6-0.3-3.4-1c-0.8-0.7-1.2-1.8-1.2-3.4v-8.8h-1.9v-2.7h1.9v-3.9h3.3v3.9h3.9v2.7H246.4z"/>
		<path id="XMLID_541_" class="st0" d="M254,29.7c-0.4-0.4-0.6-0.9-0.6-1.5c0-0.6,0.2-1.1,0.6-1.5c0.4-0.4,0.9-0.6,1.5-0.6
			c0.6,0,1.1,0.2,1.5,0.6c0.4,0.4,0.6,0.9,0.6,1.5c0,0.6-0.2,1.1-0.6,1.5c-0.4,0.4-0.9,0.6-1.5,0.6C254.9,30.3,254.4,30.1,254,29.7z
			 M257.1,32.4v15.8h-3.3V32.4H257.1z"/>
		<path id="XMLID_539_" class="st0" d="M284.5,32.9c1,0.5,1.8,1.3,2.3,2.3c0.6,1,0.8,2.2,0.8,3.7v9.3h-3.2v-8.9
			c0-1.4-0.4-2.5-1.1-3.3c-0.7-0.8-1.7-1.1-2.9-1.1c-1.2,0-2.2,0.4-2.9,1.1c-0.7,0.8-1.1,1.8-1.1,3.3v8.9h-3.2v-8.9
			c0-1.4-0.4-2.5-1.1-3.3c-0.7-0.8-1.7-1.1-2.9-1.1c-1.2,0-2.2,0.4-2.9,1.1c-0.7,0.8-1.1,1.8-1.1,3.3v8.9h-3.3V32.4h3.3v1.8
			c0.5-0.7,1.2-1.2,2-1.5c0.8-0.4,1.7-0.5,2.6-0.5c1.3,0,2.4,0.3,3.4,0.8c1,0.5,1.8,1.3,2.3,2.3c0.5-1,1.2-1.7,2.2-2.3
			c1-0.6,2.1-0.8,3.3-0.8C282.3,32.2,283.5,32.4,284.5,32.9z"/>
		<path id="XMLID_536_" class="st0" d="M306.7,41.6h-12.1c0.1,1.3,0.6,2.3,1.4,3c0.8,0.8,1.9,1.2,3.1,1.2c1.8,0,3-0.7,3.7-2.2h3.5
			c-0.5,1.5-1.3,2.7-2.6,3.6c-1.3,0.9-2.8,1.4-4.7,1.4c-1.5,0-2.9-0.3-4.1-1c-1.2-0.7-2.1-1.6-2.8-2.9c-0.7-1.2-1-2.7-1-4.3
			c0-1.6,0.3-3.1,1-4.3c0.7-1.2,1.6-2.2,2.8-2.9c1.2-0.7,2.6-1,4.1-1c1.5,0,2.8,0.3,4,1c1.2,0.7,2.1,1.6,2.7,2.7
			c0.7,1.2,1,2.5,1,4.1C306.8,40.6,306.8,41.1,306.7,41.6z M303.4,38.9c0-1.2-0.5-2.2-1.3-2.9c-0.8-0.7-1.9-1.1-3.1-1.1
			c-1.1,0-2.1,0.4-2.9,1.1s-1.3,1.7-1.4,2.9H303.4z"/>
		<path id="XMLID_534_" class="st0" d="M321.9,32.9c1,0.5,1.8,1.3,2.3,2.3c0.6,1,0.8,2.2,0.8,3.7v9.3h-3.2v-8.9
			c0-1.4-0.4-2.5-1.1-3.3c-0.7-0.8-1.7-1.1-2.9-1.1c-1.2,0-2.2,0.4-2.9,1.1c-0.7,0.8-1.1,1.8-1.1,3.3v8.9h-3.3V32.4h3.3v1.8
			c0.5-0.7,1.2-1.2,2.1-1.5c0.8-0.4,1.7-0.5,2.7-0.5C319.8,32.2,320.9,32.4,321.9,32.9z"/>
		<path id="XMLID_532_" class="st0" d="M333.6,35.1v8.8c0,0.6,0.1,1,0.4,1.3c0.3,0.3,0.8,0.4,1.4,0.4h2v2.7h-2.6
			c-1.5,0-2.6-0.3-3.4-1c-0.8-0.7-1.2-1.8-1.2-3.4v-8.8h-1.9v-2.7h1.9v-3.9h3.3v3.9h3.9v2.7H333.6z"/>
		<path id="XMLID_529_" class="st0" d="M343.8,47.5c-1.2-0.7-2.2-1.6-2.8-2.9c-0.7-1.2-1-2.7-1-4.3c0-1.6,0.4-3,1.1-4.3
			c0.7-1.2,1.7-2.2,2.9-2.9c1.2-0.7,2.6-1,4.1-1c1.5,0,2.9,0.3,4.1,1c1.2,0.7,2.2,1.6,2.9,2.9c0.7,1.2,1.1,2.7,1.1,4.3
			s-0.4,3-1.1,4.3c-0.7,1.2-1.7,2.2-3,2.9c-1.3,0.7-2.6,1-4.2,1C346.3,48.5,345,48.2,343.8,47.5z M350.2,45.1c0.7-0.4,1.3-1,1.8-1.8
			c0.5-0.8,0.7-1.8,0.7-2.9c0-1.1-0.2-2.1-0.7-2.9c-0.4-0.8-1-1.4-1.8-1.8c-0.7-0.4-1.5-0.6-2.4-0.6c-0.8,0-1.6,0.2-2.3,0.6
			c-0.7,0.4-1.3,1-1.7,1.8c-0.4,0.8-0.6,1.8-0.6,2.9c0,1.7,0.4,3,1.3,4c0.9,0.9,2,1.4,3.3,1.4C348.7,45.7,349.5,45.5,350.2,45.1z"/>
		<path id="XMLID_527_" class="st0" d="M221.3,66.6v20H218V72.9l-6.1,13.7h-2.3l-6.1-13.7v13.7h-3.3v-20h3.5l7,15.7l7-15.7H221.3z"
			/>
		<path id="XMLID_524_" class="st0" d="M226,74.4c0.7-1.2,1.6-2.2,2.7-2.9s2.4-1,3.8-1c1.2,0,2.3,0.2,3.3,0.7
			c0.9,0.5,1.7,1.1,2.2,1.8v-2.3h3.3v15.8H238v-2.4c-0.6,0.7-1.3,1.4-2.3,1.9c-1,0.5-2.1,0.7-3.3,0.7c-1.4,0-2.6-0.3-3.7-1
			c-1.1-0.7-2-1.7-2.7-2.9c-0.7-1.3-1-2.7-1-4.3C225,77,225.3,75.6,226,74.4z M237.3,75.8c-0.5-0.8-1-1.4-1.8-1.8
			c-0.7-0.4-1.5-0.6-2.4-0.6c-0.8,0-1.6,0.2-2.4,0.6c-0.7,0.4-1.3,1-1.8,1.8c-0.4,0.8-0.7,1.7-0.7,2.8c0,1.1,0.2,2.1,0.7,2.9
			c0.5,0.8,1,1.5,1.8,1.9c0.7,0.4,1.5,0.6,2.3,0.6c0.8,0,1.6-0.2,2.4-0.6c0.7-0.4,1.3-1,1.8-1.9c0.5-0.8,0.7-1.8,0.7-2.9
			C238,77.6,237.7,76.6,237.3,75.8z"/>
		<path id="XMLID_522_" class="st0" d="M249.9,73.4v8.8c0,0.6,0.1,1,0.4,1.3s0.8,0.4,1.4,0.4h2v2.7h-2.6c-1.5,0-2.6-0.3-3.4-1
			s-1.2-1.8-1.2-3.4v-8.8h-1.9v-2.7h1.9v-3.9h3.3v3.9h3.9v2.7H249.9z"/>
		<path id="XMLID_519_" class="st0" d="M271.7,79.9h-12.1c0.1,1.3,0.6,2.3,1.4,3c0.8,0.8,1.9,1.2,3.1,1.2c1.8,0,3-0.7,3.7-2.2h3.5
			c-0.5,1.5-1.3,2.7-2.6,3.6c-1.3,0.9-2.8,1.4-4.7,1.4c-1.5,0-2.9-0.3-4.1-1s-2.1-1.6-2.8-2.9c-0.7-1.2-1-2.7-1-4.3
			c0-1.6,0.3-3.1,1-4.3c0.7-1.2,1.6-2.2,2.8-2.9c1.2-0.7,2.6-1,4.1-1c1.5,0,2.8,0.3,4,1c1.2,0.7,2.1,1.6,2.7,2.7
			c0.7,1.2,1,2.5,1,4.1C271.8,78.9,271.8,79.4,271.7,79.9z M268.4,77.3c0-1.2-0.5-2.2-1.3-2.9c-0.8-0.7-1.9-1.1-3.1-1.1
			c-1.1,0-2.1,0.4-2.9,1.1c-0.8,0.7-1.3,1.7-1.4,2.9H268.4z"/>
		<path id="XMLID_517_" class="st0" d="M298.1,71.3c1,0.5,1.8,1.3,2.3,2.3c0.6,1,0.8,2.2,0.8,3.7v9.3H298v-8.9
			c0-1.4-0.4-2.5-1.1-3.3s-1.7-1.1-2.9-1.1s-2.2,0.4-2.9,1.1c-0.7,0.8-1.1,1.8-1.1,3.3v8.9h-3.2v-8.9c0-1.4-0.4-2.5-1.1-3.3
			c-0.7-0.8-1.7-1.1-2.9-1.1c-1.2,0-2.2,0.4-2.9,1.1c-0.7,0.8-1.1,1.8-1.1,3.3v8.9h-3.3V70.8h3.3v1.8c0.5-0.7,1.2-1.2,2-1.5
			c0.8-0.4,1.7-0.5,2.6-0.5c1.3,0,2.4,0.3,3.4,0.8c1,0.5,1.8,1.3,2.3,2.3c0.5-1,1.2-1.7,2.2-2.3c1-0.6,2.1-0.8,3.3-0.8
			C296,70.5,297.1,70.8,298.1,71.3z"/>
		<path id="XMLID_514_" class="st0" d="M305.9,74.4c0.7-1.2,1.6-2.2,2.7-2.9c1.1-0.7,2.4-1,3.8-1c1.2,0,2.3,0.2,3.3,0.7
			c0.9,0.5,1.7,1.1,2.2,1.8v-2.3h3.3v15.8h-3.3v-2.4c-0.6,0.7-1.3,1.4-2.3,1.9c-1,0.5-2.1,0.7-3.3,0.7c-1.4,0-2.6-0.3-3.7-1
			s-2-1.7-2.7-2.9c-0.7-1.3-1-2.7-1-4.3C304.9,77,305.2,75.6,305.9,74.4z M317.2,75.8c-0.5-0.8-1-1.4-1.8-1.8s-1.5-0.6-2.4-0.6
			s-1.6,0.2-2.4,0.6c-0.7,0.4-1.3,1-1.8,1.8c-0.4,0.8-0.7,1.7-0.7,2.8c0,1.1,0.2,2.1,0.7,2.9c0.5,0.8,1,1.5,1.8,1.9
			c0.7,0.4,1.5,0.6,2.3,0.6c0.8,0,1.6-0.2,2.4-0.6c0.7-0.4,1.3-1,1.8-1.9c0.5-0.8,0.7-1.8,0.7-2.9C317.8,77.6,317.6,76.6,317.2,75.8
			z"/>
		<path id="XMLID_512_" class="st0" d="M329.8,73.4v8.8c0,0.6,0.1,1,0.4,1.3s0.8,0.4,1.4,0.4h2v2.7h-2.6c-1.5,0-2.6-0.3-3.4-1
			c-0.8-0.7-1.2-1.8-1.2-3.4v-8.8h-1.9v-2.7h1.9v-3.9h3.3v3.9h3.9v2.7H329.8z"/>
		<path id="XMLID_509_" class="st0" d="M337.3,68.1c-0.4-0.4-0.6-0.9-0.6-1.5c0-0.6,0.2-1.1,0.6-1.5c0.4-0.4,0.9-0.6,1.5-0.6
			c0.6,0,1.1,0.2,1.5,0.6c0.4,0.4,0.6,0.9,0.6,1.5c0,0.6-0.2,1.1-0.6,1.5c-0.4,0.4-0.9,0.6-1.5,0.6
			C338.2,68.7,337.8,68.5,337.3,68.1z M340.5,70.8v15.8h-3.3V70.8H340.5z"/>
		<path id="XMLID_507_" class="st0" d="M345.2,74.4c0.7-1.2,1.6-2.2,2.7-2.9c1.2-0.7,2.5-1,4-1c1.9,0,3.5,0.5,4.8,1.4
			c1.3,0.9,2.1,2.2,2.5,3.9h-3.5c-0.3-0.8-0.7-1.4-1.4-1.8s-1.4-0.7-2.4-0.7c-1.3,0-2.4,0.5-3.2,1.4c-0.8,0.9-1.2,2.3-1.2,4
			c0,1.7,0.4,3,1.2,4c0.8,1,1.9,1.4,3.2,1.4c1.9,0,3.2-0.8,3.8-2.5h3.5c-0.5,1.6-1.3,2.9-2.6,3.8c-1.3,0.9-2.8,1.4-4.7,1.4
			c-1.5,0-2.9-0.3-4-1c-1.2-0.7-2.1-1.6-2.7-2.9c-0.7-1.2-1-2.7-1-4.3C344.2,77,344.5,75.6,345.2,74.4z"/>
		<path id="XMLID_504_" class="st0" d="M362.9,74.4c0.7-1.2,1.6-2.2,2.7-2.9c1.1-0.7,2.4-1,3.8-1c1.2,0,2.3,0.2,3.3,0.7
			c0.9,0.5,1.7,1.1,2.2,1.8v-2.3h3.3v15.8h-3.3v-2.4c-0.6,0.7-1.3,1.4-2.3,1.9c-1,0.5-2.1,0.7-3.3,0.7c-1.4,0-2.6-0.3-3.7-1
			c-1.1-0.7-2-1.7-2.7-2.9c-0.7-1.3-1-2.7-1-4.3C362,77,362.3,75.6,362.9,74.4z M374.2,75.8c-0.5-0.8-1-1.4-1.8-1.8
			c-0.7-0.4-1.5-0.6-2.4-0.6s-1.6,0.2-2.4,0.6c-0.7,0.4-1.3,1-1.8,1.8c-0.4,0.8-0.7,1.7-0.7,2.8c0,1.1,0.2,2.1,0.7,2.9
			c0.5,0.8,1,1.5,1.8,1.9c0.7,0.4,1.5,0.6,2.3,0.6c0.8,0,1.6-0.2,2.4-0.6c0.7-0.4,1.3-1,1.8-1.9c0.5-0.8,0.7-1.8,0.7-2.9
			C374.9,77.6,374.7,76.6,374.2,75.8z"/>
		<path id="XMLID_501_" class="st0" d="M163.3,74.2c0.7-1.2,1.6-2.2,2.7-2.9s2.4-1,3.8-1c1,0,2.1,0.2,3.1,0.7c1,0.5,1.8,1,2.4,1.8
			v-7.6h3.3v21.3h-3.3V84c-0.5,0.8-1.3,1.4-2.2,1.9c-0.9,0.5-2,0.7-3.3,0.7c-1.4,0-2.6-0.3-3.8-1s-2-1.7-2.7-2.9
			c-0.7-1.3-1-2.7-1-4.3C162.3,76.9,162.7,75.4,163.3,74.2z M174.6,75.7c-0.5-0.8-1-1.4-1.8-1.8c-0.7-0.4-1.5-0.6-2.4-0.6
			s-1.6,0.2-2.4,0.6c-0.7,0.4-1.3,1-1.8,1.8c-0.4,0.8-0.7,1.7-0.7,2.8c0,1.1,0.2,2.1,0.7,2.9c0.5,0.8,1,1.5,1.8,1.9
			c0.7,0.4,1.5,0.6,2.3,0.6c0.8,0,1.6-0.2,2.4-0.6c0.7-0.4,1.3-1,1.8-1.9c0.5-0.8,0.7-1.8,0.7-2.9C175.3,77.4,175.1,76.5,174.6,75.7
			z"/>
		<path id="XMLID_498_" class="st0" d="M183.6,67.9c-0.4-0.4-0.6-0.9-0.6-1.5c0-0.6,0.2-1.1,0.6-1.5c0.4-0.4,0.9-0.6,1.5-0.6
			c0.6,0,1.1,0.2,1.5,0.6c0.4,0.4,0.6,0.9,0.6,1.5c0,0.6-0.2,1.1-0.6,1.5c-0.4,0.4-0.9,0.6-1.5,0.6C184.5,68.5,184,68.3,183.6,67.9z
			 M186.7,70.6v15.8h-3.3V70.6H186.7z"/>
	</g>
</g>
</svg>
